# xmcd
#
# Track frame offsets: 
#        150
#        14952
#        29180
#        40830
#        54247
#        68337
#        83302
#        96927
#        114705
#        127495
#        141027
#        156802
#        170722
#        184785
#        197612
#        213180
#
# Disc length: 3016 seconds
#
# Revision: 1
# Processed by: cddbd v1.5.2PL0 Copyright (c) Steve Scherf et al.
# Submitted via: ExactAudioCopyFreeDBPlugin 1.0
#
DISCID=e30bc610
DTITLE=Various Artist - Can U Dig?! [MusicSpace.com]
DYEAR=2005
DGENRE=Soul
TTITLE0=Isaac Hayes - Theme from Shaft
TTITLE1=War - Lowrider
TTITLE2=Billy Preston - Nothing from Nothing
TTITLE3=King Floyd - Groove Me
TTITLE4=The O'Jays - Backstabbers
TTITLE5=The Isley Brothers - Fight the Power, Part 1
TTITLE6=Kool and The Gang - Funky Stuff
TTITLE7=James Brown - The Payback, Pt. 1
TTITLE8=Rhythm Heritage - Theme from SWAT
TTITLE9=The Chi-Lites - Give More Power to the People
TTITLE10=William de Vaughn - Be Thankful for What You've Got
TTITLE11=Quincy Jones - Sanford and Son Theme (The Streetbeater)
TTITLE12=The Beginning of the End - Funky Nassau, Part 1
TTITLE13=Melvin Van Peebles - Sweetback's Theme
TTITLE14=The Impressions - Check Out Your Mind
TTITLE15=The Friends of Distinction - Grazing in the Grass
EXTD=
EXTT0=
EXTT1=
EXTT2=
EXTT3=
EXTT4=
EXTT5=
EXTT6=
EXTT7=
EXTT8=
EXTT9=
EXTT10=
EXTT11=
EXTT12=
EXTT13=
EXTT14=
EXTT15=
PLAYORDER=
